<svg width="226" height="41" fill="none" xmlns="http://www.w3.org/2000/svg"><path fill-rule="evenodd" clip-rule="evenodd" d="M70.51 7.972c0 1.223-1.067 2.272-2.312 2.272-1.245 0-2.312-1.049-2.312-2.272 0-1.223 1.067-2.272 2.312-2.272 1.245 0 2.312 1.049 2.312 2.272zm-2.312 4.136c-1.364 0-2.43 1.049-2.43 2.388 0 1.34 1.066 2.389 2.43 2.389 1.363 0 2.43-1.049 2.43-2.389 0-1.398-1.067-2.388-2.43-2.388zm-2.49 8.796c0-1.34 1.126-2.446 2.49-2.446 1.363 0 2.549 1.107 2.49 2.446 0 1.34-1.127 2.447-2.49 2.447-1.364 0-2.49-1.107-2.49-2.447zm2.49 4.02c-1.364 0-2.43 1.049-2.43 2.389 0 1.34 1.066 2.388 2.43 2.388 1.363 0 2.43-1.049 2.43-2.389 0-1.281-1.067-2.388-2.43-2.388zm-2.312 8.855c0-1.224 1.067-2.272 2.312-2.272 1.304 0 2.312 1.048 2.312 2.272 0 1.223-1.067 2.272-2.312 2.272-1.245 0-2.312-1.049-2.312-2.272zM74.6 11.817c-1.482 0-2.727 1.223-2.727 2.68 0 1.456 1.245 2.68 2.727 2.68 1.482 0 2.727-1.224 2.727-2.68 0-1.457-1.245-2.68-2.727-2.68zm-2.845 9.146c0-1.573 1.304-2.797 2.845-2.797 1.541 0 2.846 1.224 2.846 2.797 0 1.573-1.305 2.796-2.846 2.796-1.6 0-2.845-1.282-2.845-2.796zm2.845 3.67c-1.482 0-2.727 1.223-2.727 2.68 0 1.456 1.245 2.68 2.727 2.68 1.482 0 2.727-1.224 2.727-2.68 0-1.457-1.245-2.68-2.727-2.68zm3.438-3.729c0-1.747 1.482-3.087 3.142-3.087s3.023 1.34 3.142 3.087c0 1.748-1.363 3.088-3.142 3.088-1.778 0-3.142-1.456-3.142-3.088zM61.736 12.4c-1.126 0-2.075.932-2.075 2.04 0 1.106.949 2.038 2.075 2.038 1.127 0 2.075-.932 2.075-2.039 0-1.107-.89-2.039-2.075-2.039zm-2.193 8.505c0-1.223.948-2.155 2.193-2.155s2.194.932 2.194 2.155c0 1.224-.949 2.156-2.194 2.156s-2.193-.932-2.193-2.156zm2.193 4.311c-1.126 0-2.075.932-2.075 2.04 0 1.106.949 2.038 2.075 2.038 1.127 0 2.075-.932 2.075-2.039 0-1.107-.89-2.039-2.075-2.039zm-8.358-4.252c0-1.049.83-1.864 1.897-1.864 1.067 0 1.897.815 1.897 1.864 0 1.048-.83 1.864-1.897 1.864-1.067 0-1.897-.816-1.897-1.864z" fill="#8C98A4"/><path d="M107.915 16.943c-.237 0-.415.233-.415.408v16.136c0 .233.238.408.415.408h1.957c.237 0 .415-.233.415-.408V17.351c0-.233-.237-.408-.415-.408h-1.957zm1.067-6.816c-1.067 0-1.896.816-1.896 1.864 0 1.049.829 1.864 1.896 1.864 1.068 0 1.897-.815 1.897-1.864 0-1.048-.889-1.864-1.897-1.864zm41.022 6.816c-.237 0-.415.233-.415.408v16.136c0 .233.237.408.415.408h1.956c.238 0 .415-.233.415-.408V17.351c0-.233-.237-.408-.415-.408h-1.956zm.949-6.816c-1.067 0-1.897.816-1.897 1.864 0 1.049.83 1.864 1.897 1.864 1.067 0 1.897-.815 1.897-1.864 0-1.048-.83-1.864-1.897-1.864z" fill="#8C98A4"/><path fill-rule="evenodd" clip-rule="evenodd" d="M170.968 32.128a.367.367 0 01-.115.194c0 .117-.123.233-.37.175l.095.109a.103.103 0 01-.033.008h-.186l.433.524h.247l-.461-.532a.682.682 0 00.071-.036c.06-.033.132-.073.204-.073.124 0 .124-.117.124-.233 0-.048 0-.096-.009-.136zm-.856.486v-.7h.433c.123 0 .247 0 .308.117.073 0 .103.04.115.097.009-.04.009-.073.009-.097v-.117s0-.116-.124-.116c0 0-.123-.117-.247-.117h-.802v1.457h.247v-.524h.061z" fill="#8C98A4"/><path fill-rule="evenodd" clip-rule="evenodd" d="M169.033 32.439c0-.7.652-1.34 1.364-1.34.77 0 1.363.582 1.363 1.34 0 .699-.652 1.34-1.363 1.34-.712 0-1.364-.641-1.364-1.34zm.119 0c0 .699.533 1.223 1.245 1.223.652 0 1.244-.524 1.244-1.223 0-.7-.533-1.224-1.244-1.224-.712 0-1.245.525-1.245 1.224z" fill="#8C98A4"/><path d="M124.217 19.564c.238 0 .415-.233.415-.407v-1.923c0-.233-.237-.408-.415-.408h-4.208v-6.175c0-.233-.238-.407-.415-.407h-1.957c-.237 0-.415.233-.415.407v6.175h-2.074c-.238 0-.415.233-.415.408v1.923c0 .233.237.407.415.407h2.074v9.321c0 2.855 1.957 4.719 4.802 4.719h2.075c.237 0 .415-.233.415-.408v-1.922c0-.233-.237-.408-.415-.408h-1.779c-1.363 0-2.311-.932-2.311-2.389v-8.97h4.208v.057zm41.615 0c.237 0 .415-.233.415-.407v-1.923c0-.233-.237-.408-.415-.408h-4.209v-6.175c0-.233-.237-.407-.415-.407h-1.956c-.237 0-.415.233-.415.407v6.175h-2.075c-.237 0-.415.233-.415.408v1.923c0 .233.237.407.415.407h2.075v9.321c0 2.855 1.956 4.719 4.802 4.719h2.074c.238 0 .415-.233.415-.408v-1.922c0-.233-.237-.408-.415-.408h-1.897c-1.363 0-2.311-.932-2.311-2.389v-8.97h4.268l.059.057zm-70.365 0v13.749c0 .233.237.407.415.407h1.956c.237 0 .415-.233.415-.407V19.564h4.624c.237 0 .415-.233.415-.407v-1.923c0-.233-.238-.408-.415-.408h-4.624v-3.611c0-1.457 1.067-2.447 2.312-2.447h2.312c.237 0 .415-.233.415-.408V8.438c0-.233-.238-.408-.415-.408h-2.194c-2.904 0-5.216 2.389-5.216 5.126v3.67h-2.075c-.237 0-.415.233-.415.408v1.923c0 .233.237.407.415.407h2.075z" fill="#8C98A4"/><path fill-rule="evenodd" clip-rule="evenodd" d="M137.318 16.302c2.312 0 4.506.932 6.047 2.564 1.541 1.63 2.371 3.902 2.371 6.407 0 6.234-4.327 9.03-8.477 9.03-4.209 0-8.477-2.738-8.477-9.03V8.321c0-.174.178-.407.415-.407h1.956c.178 0 .415.174.415.407v10.253c1.364-1.34 3.557-2.272 5.75-2.272zm-5.809 9.03c0 3.087 1.541 6.35 5.75 6.35s5.691-3.263 5.75-6.35c0-3.729-2.312-6.292-5.75-6.292s-5.75 2.505-5.75 6.292z" fill="#8C98A4"/></svg>