<svg width="226" height="41" fill="none" xmlns="http://www.w3.org/2000/svg"><path fill-rule="evenodd" clip-rule="evenodd" d="M86.527 26.776c.177.412.353.883.53 1.353a7.669 7.669 0 01.472 3.94c-.413 2.706-2.182 5.058-4.778 6.116-.943.412-1.946.588-3.008.588-.295 0-.649 0-.944-.058-1.238-.118-2.477-.53-3.716-1.235-1.474-.824-2.949-2.059-4.6-3.823-1.652 1.764-3.068 3-4.601 3.823-1.239.705-2.478 1.058-3.716 1.235-.148 0-.31.014-.472.03-.162.014-.325.029-.472.029-1.062 0-2.065-.177-3.008-.589-2.537-1.058-4.424-3.352-4.837-6.116-.177-1.352 0-2.646.472-3.94.177-.53.354-.94.53-1.353.296-.646.59-1.293.827-1.881l.058-.06a539.75 539.75 0 018.14-16.642l.118-.236c.295-.529.59-1.117.885-1.705l.24-.38c.336-.536.688-1.097 1.117-1.62 1.239-1.411 2.89-2.234 4.719-2.234 1.77 0 3.48.823 4.66 2.293.59.647 1.002 1.353 1.356 2 .295.588.59 1.176.885 1.705l.118.235a359.953 359.953 0 018.14 16.644h.059c.236.588.53 1.235.826 1.881zm29.02-15.525a2.389 2.389 0 01-2.418 2.41 2.389 2.389 0 01-2.419-2.41 2.389 2.389 0 012.419-2.412c1.415.06 2.418 1.118 2.418 2.412zm-9.85 4.822v.588s-1.121-1.47-3.598-1.47c-4.011 0-7.138 3.058-7.138 7.292 0 4.176 3.127 7.293 7.138 7.293 2.477 0 3.598-1.53 3.598-1.53v.648c0 .294.236.529.531.529h3.008v-13.88h-3.008c-.354 0-.531.236-.531.53zm-3.009 10.35c1.357 0 2.478-.705 3.009-1.528v-4.94c-.531-.765-1.711-1.53-3.009-1.53-2.359 0-4.188 1.47-4.188 4 0 2.528 1.829 3.998 4.188 3.998zm8.671-10.88h3.539v13.821h-3.539v-13.82zm49.312 1.118s1.179-1.47 3.598-1.47c4.011 0 7.137 3.058 7.137 7.233 0 4.176-3.126 7.293-7.137 7.293-2.477 0-3.598-1.53-3.598-1.53v.648a.528.528 0 01-.531.529h-3.008V8.898h3.539v7.763zm3.008 9.704a3.697 3.697 0 01-3.008-1.53v-4.94c.531-.764 1.71-1.528 3.008-1.528 2.359 0 4.188 1.47 4.188 3.999s-1.829 3.999-4.188 3.999zm-8.376 3.058V21.19c0-2.353-.472-3.647-1.651-4.646-1.062-.883-2.36-1.353-3.893-1.353-1.357 0-2.714.412-3.775 1.47v-.588a.528.528 0 00-.531-.53h-2.832v13.88h3.539v-9.645c.708-.823 1.829-1.353 2.891-1.353 1.946 0 2.713.883 2.713 3.176v7.822h3.539zM134.01 15.19c-2.419 0-3.599 1.47-3.599 1.47V8.898h-3.539v20.466h3.009c.294 0 .53-.235.53-.53v-.646s1.121 1.529 3.599 1.529c4.011 0 7.137-3.117 7.137-7.293.059-4.175-3.068-7.233-7.137-7.233zm-3.599 9.645a3.7 3.7 0 003.009 1.529c2.359 0 4.188-1.47 4.188-4 0-2.528-1.829-3.998-4.188-3.998-1.298 0-2.478.764-3.009 1.529v4.94zm-6.547-9.645c1.062 0 1.652.176 1.652.176v3.294s-2.95-1-4.778 1.117v9.645h-3.539v-13.88h3.008c.295 0 .531.236.531.53v.588c.59-.764 2.005-1.47 3.126-1.47zm-53.44 14.82c-2.006-2.529-3.303-4.881-3.716-6.822-.177-.823-.236-1.588-.118-2.235a3.206 3.206 0 01.59-1.529c.707-1 1.887-1.646 3.244-1.646 1.356 0 2.595.588 3.244 1.646.295.47.53.941.59 1.53.118.646.059 1.41-.118 2.234-.413 1.94-1.71 4.293-3.716 6.822zm11.384 6.057a5.296 5.296 0 003.362-4.293c.118-1 0-1.882-.177-2.823a8.283 8.283 0 00-.234-.591c-.076-.178-.157-.37-.238-.585-.147-.294-.28-.603-.413-.911-.133-.31-.265-.618-.413-.912v-.059a425.906 425.906 0 00-8.08-16.525l-.119-.235a46.047 46.047 0 00-.884-1.706c-.295-.588-.65-1.176-1.062-1.647a3.874 3.874 0 00-2.95-1.35c-1.12 0-2.182.47-2.949 1.352a9.789 9.789 0 00-1.061 1.647c-.295.588-.59 1.176-.885 1.706l-.118.235c-2.89 5.47-5.604 11.056-8.14 16.525l-.06.06a25.05 25.05 0 00-.825 1.822c-.177.412-.354.823-.472 1.176-.413 1.059-.472 1.941-.354 2.882.236 1.882 1.534 3.529 3.363 4.293.825.294 1.769.47 2.772.353a7.662 7.662 0 002.831-.941c1.298-.764 2.654-1.882 4.188-3.587-2.418-3-3.952-5.764-4.483-8.175-.295-1.117-.354-2.176-.177-3.117.177-.94.472-1.764 1.003-2.529 1.12-1.587 3.067-2.587 5.19-2.587 2.124 0 4.07.94 5.191 2.587.531.765.826 1.588 1.003 2.53.118.94.059 1.999-.177 3.116-.59 2.411-2.064 5.116-4.483 8.116 1.534 1.705 2.832 2.823 4.188 3.587 1.003.53 1.888.824 2.832.941 1.002.118 1.946 0 2.83-.353z" fill="#8C98A4"/></svg>